<?xml version="1.0" encoding="UTF-8"?>
<svg width="185.82mm" height="192.4mm" version="1.1" viewBox="0 0 185.82 192.4" xmlns="http://www.w3.org/2000/svg" xmlns:cc="http://creativecommons.org/ns#" xmlns:dc="http://purl.org/dc/elements/1.1/" xmlns:rdf="http://www.w3.org/1999/02/22-rdf-syntax-ns#">
 <metadata>
  <rdf:RDF>
   <cc:Work rdf:about="">
    <dc:format>image/svg+xml</dc:format>
    <dc:type rdf:resource="http://purl.org/dc/dcmitype/StillImage"/>
    <dc:title/>
   </cc:Work>
  </rdf:RDF>
 </metadata>
 <g transform="translate(-14.253 -44.448)">
  <path d="m199.97 236.85v-54.068c0-6.0812 1.1648-13.24-4.3215-17.422-0.82108-0.62511-1.7487-1.0924-2.7135-1.4492-4.2039-1.5557-8.8942-0.20904-11.842 3.0924-1.5095 1.6914-2.2311 3.9988-3.1637 6.0299-1.0974 2.3909-2.4431 4.6873-3.8079 6.9344-4.4179 7.2721-10.228 13.765-16.864 19.075-24.084 19.268-58.652 21.812-85.123 5.8289-7.8138-4.7184-14.731-10.819-20.401-17.969-15.773-19.894-20.296-47.252-11.79-71.153 2.7733-7.7917 6.8683-15.148 12.035-21.607 4.7798-5.9751 10.47-11.29 16.839-15.544 8.7726-5.859 18.567-9.7778 28.944-11.649 3.1416-0.56641 6.3646-0.90439 9.5474-1.0437 2.6502-0.11598 5.1375 0.11356 7.6379-0.99504 5.0621-2.2442 7.5183-8.4609 5.5074-13.581-1.5165-3.8592-4.9566-6.3186-9.0248-6.8053-1.5567-0.18622-3.1687 0.03236-4.7234 0.07035-10.494 0.25688-20.952 2.5623-30.753 6.2903-33.952 12.915-57.849 45.056-61.287 81.045-2.7524 28.806 8.3068 58.179 29.228 78.184 9.9043 9.471 21.769 16.748 34.672 21.341 14.585 5.1908 30.242 6.4731 45.526 4.4632 12.651-1.6633 25.057-6.2028 35.979-12.755 3.8702-2.3225 7.5324-4.9395 11.055-7.7585 0.95876-0.7668 1.8954-1.5618 2.814-2.3768 0.26532-0.23617 0.71957-0.79796 1.1055-0.79394 0.55475 7e-3 1.3396 1.1336 1.7085 1.5025l16.984 16.984c1.9859 1.9859 3.9376 4.5144 6.2309 6.1304m-133.56-106.59c-2.4019 0.31557-4.5771 0.91856-6.4319 2.5878-5.8694 5.2822-3.9046 15.473 3.819 17.799 1.5045 0.45325 3.0723 0.55375 4.623 0.34471 5.0702-0.68239 8.9263-5.235 8.9263-10.322 0-5.5315-5.1053-11.174-10.936-10.41m40.2 0c-2.4049 0.31658-4.5707 0.9266-6.4319 2.5878-0.99795 0.89143-1.8532 1.9909-2.4341 3.1989-3.6089 7.5123 2.6954 15.989 10.876 14.945 5.0652-0.64621 8.9414-5.2511 8.9414-10.322 0-5.5425-5.1194-11.174-10.951-10.41m40.2 0c-2.5084 0.32964-4.7305 1.009-6.6329 2.7808-0.94469 0.88037-1.6934 1.9426-2.2472 3.1064-3.5607 7.4812 2.7657 15.882 10.89 14.845 5.1365-0.65525 9.067-5.3737 8.9434-10.523-0.13266-5.4682-5.1727-10.967-10.953-10.209z" fill="#017bef"/>
 </g>
</svg>
